<svg width="660.760009765625px" height="142.48001708984373px" xmlns="http://www.w3.org/2000/svg" viewBox="-80.3800048828125 3.7599914550781364 660.760009765625 142.48001708984373" style="background: rgba(0, 0, 0, 0) none repeat scroll 0% 0%;" preserveAspectRatio="xMidYMid"><defs><linearGradient id="editing-gradient-gradient" x1="0" x2="1" y1="0.5" y2="0.5" gradientUnits="objectBoundingBox"><stop offset="0" stop-color="#ee5a30"></stop><stop offset="1" stop-color="#f7981e"></stop></linearGradient></defs><g><g transform="translate(12.245002746582031, 108.61000061035156)"><path d="M56.72-67.22L66.33-67.22L66.33 0L56.72 0L56.72-28.78L18.23-28.78L18.23 0L8.63 0L8.63-67.22L18.23-67.22L18.23-38.39L56.72-38.39L56.72-67.22ZM103.73-67.22L113.34-67.22L139.27 0L129.66 0L123.70-15.47L93.38-15.47L87.42 0L77.81 0L103.73-67.22ZM108.56-54.70L97.03-25.08L120-25.08L108.56-54.70ZM188.34 0L185.48 0L160.41-49.27L160.41 0L150.80 0L150.80-67.22L161.30-67.22L186.89-16.59L212.53-67.22L222.98-67.22L222.98 0L213.42 0L213.42-49.27L188.34 0ZM317.16-67.22L326.77-67.22L326.77 0L317.16 0L317.16-28.78L278.67-28.78L278.67 0L269.06 0L269.06-67.22L278.67-67.22L278.67-38.39L317.16-38.39L317.16-67.22ZM344.02-9.61L344.02-67.22L353.63-67.22L353.63-9.61L392.02-9.61L392.02-67.22L401.63-67.22L401.63-9.61L401.63-9.61Q401.63-7.64 400.88-5.88L400.88-5.88L400.88-5.88Q400.13-4.13 398.81-2.81L398.81-2.81L398.81-2.81Q397.50-1.50 395.74-0.75L395.74-0.75L395.74-0.75Q393.98 0 392.02 0L392.02 0L353.63 0L353.63 0Q351.66 0 349.90-0.75L349.90-0.75L349.90-0.75Q348.14-1.50 346.83-2.81L346.83-2.81L346.83-2.81Q345.52-4.13 344.77-5.88L344.77-5.88L344.77-5.88Q344.02-7.64 344.02-9.61L344.02-9.61ZM413.11-57.61L413.11-67.22L466.88-67.22L466.88-57.61L444.80-57.61L444.80 0L435.19 0L435.19-57.61L413.11-57.61Z" fill="url(#editing-gradient-gradient)"></path></g></g><style>text {
  font-size: 64px;
  font-family: Arial Black;
  dominant-baseline: central;
  text-anchor: middle;
}</style></svg>